<svg width="48" height="24" viewBox="0 0 48 24" fill="none" xmlns="http://www.w3.org/2000/svg">
<path d="M32 14.6538L27.5962 10.25H36.4038L32 14.6538Z" fill="black"/>
<path d="M12 21C10.7615 21 9.59487 20.7631 8.5 20.2894C7.40513 19.8157 6.45161 19.1728 5.63943 18.3606C4.82724 17.5484 4.18429 16.5949 3.71058 15.5C3.23686 14.4051 3 13.2385 3 12C3 10.7577 3.23686 9.59006 3.71058 8.49713C4.18429 7.40418 4.82724 6.45161 5.63943 5.63943C6.45161 4.82724 7.40513 4.18429 8.5 3.71057C9.59487 3.23686 10.7615 3 12 3C13.2423 3 14.4099 3.23686 15.5029 3.71057C16.5958 4.18429 17.5484 4.82724 18.3606 5.63943C19.1728 6.45161 19.8157 7.40418 20.2894 8.49713C20.7631 9.59006 21 10.7577 21 12C21 13.2385 20.7631 14.4051 20.2894 15.5C19.8157 16.5949 19.1728 17.5484 18.3606 18.3606C17.5484 19.1728 16.5958 19.8157 15.5029 20.2894C14.4099 20.7631 13.2423 21 12 21ZM12 20.0077C12.5872 19.2538 13.0712 18.5135 13.4519 17.7866C13.8327 17.0596 14.1423 16.2462 14.3808 15.3462H9.61923C9.88333 16.2974 10.1993 17.1365 10.5673 17.8635C10.9352 18.5904 11.4128 19.3051 12 20.0077ZM10.7269 19.8577C10.2603 19.3077 9.83429 18.6279 9.44903 17.8183C9.06378 17.0087 8.77692 16.1846 8.58845 15.3462H4.75385C5.32693 16.5898 6.13943 17.6096 7.19135 18.4058C8.24327 19.2019 9.42179 19.6859 10.7269 19.8577ZM13.2731 19.8577C14.5782 19.6859 15.7567 19.2019 16.8087 18.4058C17.8606 17.6096 18.6731 16.5898 19.2462 15.3462H15.4115C15.159 16.1974 14.8401 17.0279 14.4548 17.8375C14.0696 18.6471 13.6756 19.3205 13.2731 19.8577ZM4.34615 14.3462H8.38077C8.30512 13.9359 8.2516 13.5362 8.2202 13.1471C8.18878 12.758 8.17308 12.3756 8.17308 12C8.17308 11.6244 8.18878 11.242 8.2202 10.8529C8.2516 10.4638 8.30512 10.0641 8.38077 9.65385H4.34615C4.23718 10 4.15225 10.3772 4.09135 10.7856C4.03045 11.1939 4 11.5987 4 12C4 12.4013 4.03045 12.8061 4.09135 13.2144C4.15225 13.6228 4.23718 14 4.34615 14.3462ZM9.38077 14.3462H14.6192C14.6949 13.9359 14.7484 13.5426 14.7798 13.1664C14.8112 12.7901 14.8269 12.4013 14.8269 12C14.8269 11.5987 14.8112 11.2099 14.7798 10.8337C14.7484 10.4574 14.6949 10.0641 14.6192 9.65385H9.38077C9.30512 10.0641 9.2516 10.4574 9.2202 10.8337C9.18878 11.2099 9.17308 11.5987 9.17308 12C9.17308 12.4013 9.18878 12.7901 9.2202 13.1664C9.2516 13.5426 9.30512 13.9359 9.38077 14.3462ZM15.6192 14.3462H19.6539C19.7628 14 19.8477 13.6228 19.9087 13.2144C19.9696 12.8061 20 12.4013 20 12C20 11.5987 19.9696 11.1939 19.9087 10.7856C19.8477 10.3772 19.7628 10 19.6539 9.65385H15.6192C15.6949 10.0641 15.7484 10.4638 15.7798 10.8529C15.8112 11.242 15.8269 11.6244 15.8269 12C15.8269 12.3756 15.8112 12.758 15.7798 13.1471C15.7484 13.5362 15.6949 13.9359 15.6192 14.3462ZM15.4115 8.65385H19.2462C18.6603 7.38462 17.8574 6.36474 16.8375 5.59422C15.8176 4.82372 14.6295 4.33334 13.2731 4.12307C13.7397 4.73717 14.1593 5.43942 14.5317 6.2298C14.9042 7.02018 15.1974 7.8282 15.4115 8.65385ZM9.61923 8.65385H14.3808C14.1167 7.71538 13.791 6.86667 13.4038 6.1077C13.0167 5.34872 12.5487 4.64358 12 3.9923C11.4513 4.64358 10.9833 5.34872 10.5962 6.1077C10.209 6.86667 9.88333 7.71538 9.61923 8.65385ZM4.75385 8.65385H8.58845C8.80255 7.8282 9.09582 7.02018 9.46827 6.2298C9.84071 5.43942 10.2603 4.73717 10.7269 4.12307C9.35769 4.33334 8.16634 4.82693 7.15287 5.60385C6.13942 6.38077 5.33975 7.39743 4.75385 8.65385Z" fill="black"/>
</svg>